<?xml version="1.0" encoding="utf-8"?>
<!-- Generator: Adobe Illustrator 28.2.0, SVG Export Plug-In . SVG Version: 6.00 Build 0)  -->
<svg version="1.1" id="Camada_1" xmlns="http://www.w3.org/2000/svg" xmlns:xlink="http://www.w3.org/1999/xlink" x="0px" y="0px"
	 viewBox="0 0 648 405" style="enable-background:new 0 0 648 405;" xml:space="preserve">
<style type="text/css">
	.st0{fill:#4A697C;}
	.st1{fill:#EA842C;}
	.st2{fill:#FFFFFF;}
</style>
<path class="st0" d="M514.6,254.8c-19.3-19.5-38.3-38.7-57.3-57.9c0.1-0.4,0.3-0.8,0.4-1.2c3.6,0,7.2,0,10.8,0c9.1,0,9.1,0.4,8-8.6
	c-3.5-30.2-14.3-57.3-32.9-81.3c-13.1-16.7-28.8-30.5-47.3-40.9c-17.5-9.8-36-16.6-56.2-19c-12.1-1.5-24-2.2-36.1-1.1
	c-16.1,1.4-31.7,5.1-46.7,11.3c-32.3,13.4-57.7,35.1-76.3,64.6c-3.2,5.1-5.6,10.7-8.5,16c-0.9,1.8-1.9,3.5-3.1,5.6
	c-2.2-2-4.2-3.7-6-5.5c-8.1-8-16-16.2-24.1-24.1c-2.2-2.1-2.6-3.9-1.1-6.8c11.7-21.3,26.7-40,45-55.9c22.4-19.5,47.9-33.4,76.4-41.9
	c26.6-7.9,53.7-9.8,81.2-6.9c23.5,2.5,45.8,9.3,67.1,19.8c19.7,9.7,37.3,22.2,52.8,37.5c21.9,21.6,38.3,46.9,48.8,75.9
	c5.1,14,8.8,28.3,10.3,43.1c1,9.8,2.1,19.6,2,29.4c-0.2,15.5-2.2,30.9-6.1,46C515.7,253.3,515.4,253.6,514.6,254.8z"/>
<path class="st1" d="M131.6,153.9c18.4,17.9,36.8,35.9,55.6,54.2c-1.3,0.3-2.1,0.6-2.9,0.6c-2.3,0.1-4.5,0-6.8,0
	c-8.9,0-10,0.8-8.4,9.6c1.9,10.8,4.6,21.4,7.3,32.1c3.6,14.4,10.6,27.4,18.7,39.6c10.9,16.4,24.4,30.4,40.6,41.9
	c12.3,8.7,25.4,15.6,39.5,20.7c18.2,6.6,37.1,10.1,56.4,9.7c15.5-0.3,30.8-3,45.7-7.8c28.2-9.1,52.1-24.8,71.9-46.6
	c11-12,19.9-25.6,26.3-40.7c1.3-3.2,2-3.3,4.4-0.9c9,9,17.9,18,27,26.9c2,2,1.9,3.7,0.7,6c-6.9,12.8-15.3,24.5-24.7,35.6
	c-13.4,15.6-28.9,28.8-46.3,39.6c-17.2,10.7-35.6,18.7-55.3,23.7c-19.7,5.1-39.7,7.7-60.1,6.9c-8.6-0.4-17.2-1.9-25.7-3
	c-13.3-1.7-26-5.9-38.6-10.4c-22.9-8.2-43.1-20.8-61.3-36.5c-15.8-13.7-29.2-29.6-40.2-47.6c-8.6-14.2-15.6-29-20.5-44.8
	c-5.1-16.3-8.7-33-8.7-50.2c0-10.3-0.4-20.6,0.3-30.9c0.6-8.2,2.4-16.3,3.8-24.5c0.2-1.4,1.1-2.8,1.6-4.1
	C131.9,153.2,131.8,153.5,131.6,153.9z"/>
<path class="st2" d="M364.2,313c0.3,11.6,1.6,23.1,2.6,34.7c0.4,5.2,0.5,5.4-4.5,6.4c-2.2,0.4-4.4,0.8-6.6,1.4
	c-3.1,0.9-4.1-0.8-4.3-3.4c-0.6-6.2-1.5-12.5-1.7-18.7c-0.8-45.7-1.5-91.5-2.3-137.2c-0.1-7.8-0.6-15.6-1.1-23.4
	c-0.2-2.3,0.6-3.7,2.8-4.2c3.4-0.9,6.9-1.7,10.4-2.5c3-0.7,4.3,0.5,4.3,3.7c-0.2,13.4-0.4,26.8-0.4,40.2c-0.1,10.7,0,21.3,0,32
	C363.1,241.9,363.5,289.3,364.2,313z"/>
<path class="st2" d="M299.6,309.4c-0.3,11.7-0.3,23.5-1.6,35.1c-1.2,11,0.5,10.1-10.1,7.1c-1-0.3-2-0.6-3.1-0.9
	c-2.3-0.6-3.2-1.9-3-4.4c3.2-40.7,3.9-81.4,3-122.2c-0.4-18.1-0.2-36.3-0.4-54.4c0-3,1.1-3.9,3.8-3.3c3.9,0.9,7.9,1.7,11.7,2.9
	c0.9,0.3,2,1.9,2,2.9C301.6,197.1,300.2,288.6,299.6,309.4z"/>
<path class="st2" d="M361.5,157.5c0.3,5.3,0.3,5.2-4.7,6.2c-2.1,0.4-4.1,1-6.1,1.7c-2.5,0.9-3.3,0-4.2-2.5c-1.7-4.8-3.9-9.5-6.5-14
	c-2.4-4.2-6.8-6.3-11.5-7.1c-7.6-1.4-12.9-5.5-16.8-11.9c-3-4.9-6.9-8.7-12.1-11.1c-7.4-3.4-7.4-10.2-7.3-16.7
	c0.3-10.7,6.9-16.7,16.1-20.3c2.9-1.1,6.2-1.7,9.3-2.2c2.7-0.4,3.5,0.9,2.2,3.3c-0.7,1.3-1.9,2.4-3,3.5c-3.6,3.7-7.1,7.3-8.4,12.6
	c-1.5,6.2,0.7,10.2,6.7,10.6c3.4,0.2,6.8,0.9,10.1,1.7c6.9,1.7,11.1,7,15.1,12.4c4.1,5.5,8.5,10.1,15.6,11.4c2.7,0.5,3.8,2.6,4,5.2
	C360.6,146,361.1,151.8,361.5,157.5z M332.3,125c0-4.8-3.1-8.4-7.2-8.5c-4-0.1-7.9,4.1-7.9,8.5c0,4.2,3.9,8.3,7.7,8.3
	C329,133.3,332.2,129.6,332.3,125z"/>
<path class="st2" d="M408.5,231.3c-2.5,6.7-5,12.7-6.9,18.9c-6.7,21.1-9.9,42.7-9.7,64.8c0.1,8,1.3,16,2.3,24c0.3,2.8-0.1,4.6-3,5.4
	c-1.1,0.3-2.2,0.9-3.3,1.3c-5.7,2.3-6,2.4-7-3.6c-1.8-11.6-4.3-23.2-4.4-34.8c-0.1-13.2,1.5-26.5,3.6-39.6
	c1.8-10.9,5.2-21.6,8.5-32.2c2-6.6,2.5-6.5,9.4-6.2c0.8,0,1.6,0.2,2.5,0.3C403,230.2,405.5,230.7,408.5,231.3z"/>
<path class="st2" d="M248.3,229.3c-0.5-2.1-1-3.8-1.2-5.5c-0.5-4.8-0.7-9.7-1.3-14.5c-0.8-6.5-4.5-11.5-9.6-15.2
	c-4.7-3.4-6.9-7.6-6.8-13.2c0-5.5-0.8-10.6-3.6-15.6c-2.5-4.5-3.7-9.7-4.6-14.8c-0.5-2.6,0.5-5.6,1.4-8.2c1.1-3,2.3-3.2,4.5-0.7
	c3.8,4.2,7.4,8.7,11.4,12.7c2.1,2.1,4.7,4,7.5,5.1c7.4,3.1,10.6,8.8,11.1,16.3c0.4,7.2,0.4,14.4,0.6,21.7c0.2,8.2,0.4,16.3,0.7,24.5
	c0.1,2.5-0.7,3.9-3.2,4.6C253,227,251,228.1,248.3,229.3z M242,182.3c2.9,0.2,5.8-2.7,6.2-6.2c0.3-2.9-1.8-5.6-4.5-5.8
	c-2.8-0.2-5.5,2.5-5.8,6C237.5,179.4,239.4,182.1,242,182.3z"/>
<path class="st2" d="M434.5,232c-3.1-0.4-6.2-0.4-9.1-1.2c-1.2-0.3-2-2.2-3-3.3c-0.1-0.2,0-0.5-0.1-0.7c-0.7-4.6-0.5-8.5-7.6-9.1
	c-8.9-0.8-13-7.5-13.3-16.6c-0.1-3.3,0-6.7-3.5-8.8c-0.5-0.3-0.8-1.5-0.8-2.2c0.3-8.6-0.4-17.4,1.2-25.8c2.1-11.6,5.7-22.9,8.8-34.4
	c0.2-0.8,1.3-1.4,2-2c0.4,0.8,1.3,1.5,1.3,2.3c-0.3,6.5,1.4,13.1-1.4,19.6c-1.1,2.7-0.7,6.8,0.6,9.5c2.2,4.6,2.7,9.2,2.5,14.1
	c0,1.2,0,2.4,0,3.6c-0.2,4.4,0.9,7.7,5.7,9.2c8.7,2.8,11.3,9.8,11.2,18.2c0,2.3,0.1,4.5,2.6,5.7c0.6,0.3,0.9,1.3,1,2.1
	C433.4,218.6,433.9,225.1,434.5,232z M421.4,201.6c0-3.9-2-8-5-8.6c-1.9-0.4-4.5,0.2-6,1.3c-2.8,2.1-3,6.4-1.1,10.1
	c1.5,2.9,3.5,5.2,7.1,4.7C419.3,208.8,421.4,205.3,421.4,201.6z"/>
<path class="st2" d="M262,341.4c-3.6-1.9-6.7-3.4-9.5-5.3c-0.9-0.6-1.4-2.4-1.4-3.7c-0.6-10.8-1.1-21.5-1.5-32.3
	c-0.4-12.8-0.5-25.6-1-38.4c-0.3-8.7-0.8-17.5-1.3-26.2c-0.1-2.2,0.6-3.5,2.6-4.5c11.7-6,9.4-3.8,9.5,5.4c0.2,21.7,0.2,43.4,0.6,65
	c0.3,12.4,1.4,24.8,2.1,37.2C262.2,339.3,262.1,339.9,262,341.4z"/>
<path class="st2" d="M435.5,312.4c-0.1-27.1-4.9-53.4-14.7-79.3c6.3-0.7,11.6,0.4,16.6,2.7c0.9,0.4,1.4,1.8,1.8,2.9
	c4.9,12.4,7.8,25.3,9.3,38.6c0.6,5.8,1.3,11.5,1.5,17.3c0.1,1.9-0.8,4.2-2,5.8c-3.5,4.4-7.4,8.4-11.1,12.6
	C436.4,312.9,436,312.6,435.5,312.4z"/>
<path class="st2" d="M219.3,309.3c-4.2-4.9-9.3-8.7-9.1-16.8c0.3-18-0.6-36-0.9-54c-0.1-4.3,0.1-4.5,4.3-4.2
	c1.4,0.1,2.7,0.6,4.1,0.8c2.8,0.4,3.2,2.1,3.1,4.6c-0.2,4.9-0.4,9.7-0.4,14.6c0,17.1,0.1,34.1,0.1,51.2c0,1.2-0.1,2.3-0.2,3.5
	C219.9,309.1,219.6,309.2,219.3,309.3z"/>
<path class="st2" d="M305.6,125.9c4.3,5.4,8.3,10.4,12.5,15.6c-0.4,0.3-1,0.8-1.7,1.1c-9,3.3-13.4,10.1-14.5,19.3
	c-0.6,4.9-0.6,4.9-5.3,3.7c-2.3-0.6-4.6-1.4-6.9-1.5c-3.1-0.2-3.5-1.5-3.3-4.3c0.4-5.4,0.2-10.9,0.4-16.3c0.3-6.2,0.9-6.6,6.9-8.5
	c2.4-0.8,4.6-2.3,6.7-3.8C302.2,129.7,303.6,127.9,305.6,125.9z"/>
<path class="st2" d="M337.5,96.5c-1.3-3.9-5.1-6.9-7.6-10.5c-1.3-1.8-2.1-3.9-3.1-5.9c2.1-0.1,4.3-0.5,6.4-0.1
	c8,1.5,15.2,4.7,19.3,12.4c3.3,6.3,3.4,12.9,1,19.6c-1.8,5.1-6.7,6.4-10.7,8.7c-0.4,0.2-1.6-0.4-2-0.9c-3-3.7-8.7-11.2-8.7-11.2
	S340.3,105,337.5,96.5z"/>
<path class="st2" d="M226.6,178.1c1.8,4.5,1.6,8.2-1.8,11.8c-2.5,2.6-4.3,5.9-6.2,9c-1.2,2-2,4.4,0.3,6.1c2.4,1.8,4.3-0.1,5.8-1.8
	c2-2.3,3.8-4.8,5.6-7.3c1-1.3,1.8-2.5,3.7-1.1c1.7,1.3,1.3,2.4,0.3,3.9c-3.7,5.5-7.9,10.8-10.6,16.7c-2,4.3-2.2,9.6-2.9,14.4
	c-0.3,2.3-0.8,3.1-3.2,2.8c-7.9-1-7.8-0.9-7.6-9.1c0.1-5.2-0.6-10.4-0.4-15.6c0.1-2.7,0.7-5.8,2.1-8c4.3-7.1,9-13.9,13.7-20.7
	C225.6,178.8,226.1,178.5,226.6,178.1z"/>
<path class="st2" d="M424.1,130.8c0.7,2.2,1.5,4.4,2,6.7c2.3,10.8,5.1,21.5,6.5,32.3c1.1,8.5,0.6,17.2,0.7,25.8
	c0,0.7-0.9,1.5-1.4,2.2c-0.8-0.6-2-1.2-2.2-1.9c-1.1-5.5-4.9-8.3-9.3-11c-1.1-0.6-2.1-2.3-2.2-3.5c-0.1-3.4,0.1-6.9,0.7-10.2
	c0.6-3.3,2.3-6.4,2.8-9.6c0.6-3.6,0.7-7.4,0.6-11.1c-0.1-4.1-0.8-8.1-0.8-12.2c0-2.4,0.7-4.8,1.1-7.2
	C423.2,131,423.6,130.9,424.1,130.8z"/>
<path class="st2" d="M258.3,151c-5.8-1.5-12.4-0.6-17.2-5.8c-2.7-2.9-6.2-5.1-9.2-7.8c-1-0.9-2.1-2.9-1.7-3.7
	c0.6-1.4,2.3-2.8,3.8-3.2c8-2,16,1.2,20.2,8.2c2.1,3.5,3.5,7.5,5.3,11.3C259.1,150.3,258.7,150.6,258.3,151z"/>
<path class="st2" d="M395.4,226.6c0.6-6.7,1.2-13,1.9-19.2c0.1-0.8,0.8-1.6,1.2-2.3c0.7,0.7,1.8,1.2,2,2c1,3.8,3.2,6.8,6.2,9.3
	c1.8,1.5,1.9,10,0.2,11.6c-0.3,0.3-0.8,0.6-1.2,0.5C402,227.9,398.5,227.2,395.4,226.6z"/>
<path class="st2" d="M257.4,166.2c-1.4-1.6-2.7-3.5-4.3-4.9c-2-1.6-4.3-2.8-6.5-4.2c-0.8-0.5-2.3-1.5-2.2-1.7
	c0.5-1.4,1.6-3.7,2.2-3.6c4.1,0.5,8.1,1.5,12.2,2.5c0.3,0.1,0.7,1,0.6,1.5c-0.2,3.4-0.6,6.9-0.9,10.3
	C258.1,166.1,257.8,166.1,257.4,166.2z"/>
</svg>
