<?xml version="1.0" encoding="utf-8"?>
<!-- Generator: Adobe Illustrator 28.2.0, SVG Export Plug-In . SVG Version: 6.00 Build 0)  -->
<svg version="1.1" id="Camada_1" xmlns="http://www.w3.org/2000/svg" xmlns:xlink="http://www.w3.org/1999/xlink" x="0px" y="0px"
	 viewBox="0 0 154 60" style="enable-background:new 0 0 154 60;" xml:space="preserve">
<style type="text/css">
	.st0{fill:#4A697C;}
	.st1{fill:#EA842C;}
	.st2{fill:#FFFFFF;}
</style>
<path class="st0" d="M50.2,36.5c-2.4-2.4-4.8-4.8-7.1-7.2c0-0.1,0-0.1,0-0.2c0.4,0,0.9,0,1.3,0c1.1,0,1.1,0,1-1.1
	c-0.4-3.8-1.8-7.1-4.1-10.1c-1.6-2.1-3.6-3.8-5.9-5.1c-2.2-1.2-4.5-2.1-7-2.4c-1.5-0.2-3-0.3-4.5-0.1c-2,0.2-4,0.6-5.8,1.4
	c-4,1.7-7.2,4.4-9.5,8.1c-0.4,0.6-0.7,1.3-1.1,2c-0.1,0.2-0.2,0.4-0.4,0.7c-0.3-0.3-0.5-0.5-0.7-0.7c-1-1-2-2-3-3
	c-0.3-0.3-0.3-0.5-0.1-0.8c1.5-2.7,3.3-5,5.6-7c2.8-2.4,6-4.2,9.5-5.2c3.3-1,6.7-1.2,10.1-0.9c2.9,0.3,5.7,1.2,8.4,2.5
	c2.5,1.2,4.6,2.8,6.6,4.7c2.7,2.7,4.8,5.8,6.1,9.5c0.6,1.7,1.1,3.5,1.3,5.4c0.1,1.2,0.3,2.4,0.3,3.7c0,1.9-0.3,3.9-0.8,5.7
	C50.4,36.3,50.3,36.4,50.2,36.5z"/>
<path class="st1" d="M2.5,23.9c2.3,2.2,4.6,4.5,6.9,6.8c-0.2,0-0.3,0.1-0.4,0.1c-0.3,0-0.6,0-0.8,0c-1.1,0-1.2,0.1-1,1.2
	c0.2,1.3,0.6,2.7,0.9,4c0.4,1.8,1.3,3.4,2.3,4.9c1.4,2,3,3.8,5.1,5.2c1.5,1.1,3.2,1.9,4.9,2.6c2.3,0.8,4.6,1.3,7,1.2
	c1.9,0,3.8-0.4,5.7-1c3.5-1.1,6.5-3.1,9-5.8c1.4-1.5,2.5-3.2,3.3-5.1c0.2-0.4,0.2-0.4,0.6-0.1c1.1,1.1,2.2,2.2,3.4,3.4
	c0.3,0.2,0.2,0.5,0.1,0.7c-0.9,1.6-1.9,3.1-3.1,4.4c-1.7,1.9-3.6,3.6-5.8,4.9c-2.1,1.3-4.4,2.3-6.9,3c-2.5,0.6-5,1-7.5,0.9
	c-1.1,0-2.1-0.2-3.2-0.4c-1.7-0.2-3.2-0.7-4.8-1.3c-2.8-1-5.4-2.6-7.6-4.6c-2-1.7-3.6-3.7-5-5.9c-1.1-1.8-1.9-3.6-2.6-5.6
	c-0.6-2-1.1-4.1-1.1-6.3c0-1.3,0-2.6,0-3.8c0.1-1,0.3-2,0.5-3.1c0-0.2,0.1-0.3,0.2-0.5C2.5,23.9,2.5,23.9,2.5,23.9z"/>
<path class="st2" d="M124.7,28.7c2,0,3.8,0,5.8,0c0,0.5,0,1,0,1.4c-0.1,0.6,0.2,0.8,0.8,0.8c1.8,0,3.5,0,5.3,0c2.9,0,5.9,0,8.8,0
	c0.8,0,1.1-0.3,1.1-1.1c-0.1-1,0-1.9,0-2.9c0-1.2,0-1.2-1.2-1.2c-4.8,0-9.6,0-14.4,0c-2.1,0-3.9-0.5-5.1-2.3c-0.5-0.8-1-1.7-1-2.5
	c-0.1-2.4-0.2-4.8,0.1-7.2c0.3-2.6,2.6-4.5,5.2-4.5c5.6,0,11.3-0.1,16.9,0c2.9,0,5.2,2.4,5.3,5.3c0,0.9,0,1.7,0,2.7
	c-0.3,0-0.5,0.1-0.8,0.1c-1.1,0-2.3,0-3.4,0c-1.6,0-1.6,0-1.7-1.6c0-0.6-0.3-0.8-0.8-0.8c-4.8,0-9.6,0-14.4,0
	c-0.6,0-0.8,0.3-0.8,0.9c0,1.1,0,2.3,0,3.4c0,0.7,0.3,0.9,0.9,0.9c4.9,0,9.8,0,14.7,0c0.6,0,1.3,0,1.9,0.2c2.2,0.6,3.8,2,4.1,4.3
	c0.2,2.5,0.3,5,0,7.5c-0.2,2.7-2.6,4.6-5.3,4.6c-5.6,0.1-11.1,0.1-16.7,0c-3.1,0-5.4-2.5-5.4-5.6C124.7,30.3,124.7,29.6,124.7,28.7z
	"/>
<path class="st2" d="M72.4,29.5c-1.7-2-3.2-3.8-4.8-5.6c-1.6-1.8-3.1-3.7-4.7-5.5c-0.1,0-0.1,0.1-0.2,0.1c0,0.4-0.1,0.8-0.1,1.1
	c0,5.4,0,10.7,0,16.1c0,1.1,0,1.1-1.2,1.1c-1.5,0-3,0-4.6,0c0-0.4,0-0.8,0-1.1c0-8.4,0-16.9,0-25.3c0-1.1,0-1.1,1.1-1.1
	c1.4,0,2.7,0,4.1,0c0.6,0,1,0.2,1.4,0.7c2.8,3.3,5.5,6.6,8.3,9.9c0.2,0.2,0.3,0.4,0.7,0.8c0.2-0.3,0.3-0.6,0.5-0.8
	c2.8-3.4,5.6-6.7,8.4-10c0.2-0.3,0.6-0.5,1-0.5c1.6-0.1,3.2,0,4.8,0c0.6,0,0.7,0.2,0.7,0.7c0,8.7,0,17.3,0,26c0,0.4,0.1,0.8-0.5,0.8
	c-1.7,0-3.4,0-5.3,0c0-6.2,0-12.3,0-18.4c-0.1,0-0.2-0.1-0.3-0.1C78.7,22,75.6,25.7,72.4,29.5z"/>
<path class="st2" d="M120.4,17.3c-1.9,0-3.6,0-5.3,0c-0.2,0-0.5-0.4-0.5-0.6c-0.1-1.7-0.1-1.7-1.8-1.7c-4.4,0-8.8,0-13.2,0
	c-0.8,0-1.1,0.2-1.1,1.1c0,4.6,0,9.3,0,13.9c0,0.8,0.3,1.1,1.1,1.1c4.6,0,9.3,0,13.9,0c0.8,0,1.1-0.3,1-1c-0.1-0.9,0-1.7,0-2.6
	c0-0.6-0.2-0.8-0.8-0.8c-1.5,0-3,0-4.5,0c-0.6,0-0.8-0.2-0.8-0.8c0-1.4,0-2.8,0-4.2c0-0.5,0.1-0.8,0.7-0.8c3.5,0,7,0,10.6,0
	c0.5,0,0.7,0.2,0.7,0.7c0,3.3,0,6.6,0,9.9c-0.1,3-2.4,5.3-5.4,5.4c-5.6,0.1-11.1,0.1-16.7,0c-3.1,0-5.4-2.5-5.4-5.6
	c0-5.5,0-10.9,0-16.4c0-3.1,2.5-5.5,5.6-5.5c5.5,0,11,0,16.5,0c3.2,0,5.5,2.4,5.6,5.6C120.4,15.6,120.4,16.4,120.4,17.3z"/>
<path class="st2" d="M31.5,43.8c0,1.4,0.2,2.9,0.3,4.3c0.1,0.6,0.1,0.7-0.6,0.8C31,49,30.7,49,30.4,49.1c-0.4,0.1-0.5-0.1-0.5-0.4
	c-0.1-0.8-0.2-1.6-0.2-2.3c-0.1-5.7-0.2-11.4-0.3-17.1c0-1-0.1-1.9-0.1-2.9c0-0.3,0.1-0.5,0.3-0.5c0.4-0.1,0.9-0.2,1.3-0.3
	c0.4-0.1,0.5,0.1,0.5,0.5c0,1.7,0,3.3-0.1,5c0,1.3,0,2.7,0,4C31.4,34.9,31.4,40.8,31.5,43.8z"/>
<path class="st2" d="M23.4,43.3c0,1.5,0,2.9-0.2,4.4c-0.1,1.4,0.1,1.3-1.3,0.9c-0.1,0-0.3-0.1-0.4-0.1c-0.3-0.1-0.4-0.2-0.4-0.5
	c0.4-5.1,0.5-10.2,0.4-15.2c0-2.3,0-4.5-0.1-6.8c0-0.4,0.1-0.5,0.5-0.4c0.5,0.1,1,0.2,1.5,0.4c0.1,0,0.3,0.2,0.3,0.4
	C23.7,29.3,23.5,40.7,23.4,43.3z"/>
<path class="st2" d="M31.2,24.4c0,0.7,0,0.6-0.6,0.8c-0.3,0-0.5,0.1-0.8,0.2c-0.3,0.1-0.4,0-0.5-0.3c-0.2-0.6-0.5-1.2-0.8-1.7
	c-0.3-0.5-0.9-0.8-1.4-0.9c-0.9-0.2-1.6-0.7-2.1-1.5c-0.4-0.6-0.9-1.1-1.5-1.4c-0.9-0.4-0.9-1.3-0.9-2.1c0-1.3,0.9-2.1,2-2.5
	c0.4-0.1,0.8-0.2,1.2-0.3c0.3-0.1,0.4,0.1,0.3,0.4c-0.1,0.2-0.2,0.3-0.4,0.4c-0.4,0.5-0.9,0.9-1,1.6c-0.2,0.8,0.1,1.3,0.8,1.3
	c0.4,0,0.8,0.1,1.3,0.2c0.9,0.2,1.4,0.9,1.9,1.5c0.5,0.7,1.1,1.3,1.9,1.4c0.3,0.1,0.5,0.3,0.5,0.7C31,23,31.1,23.7,31.2,24.4z
	 M27.5,20.3c0-0.6-0.4-1-0.9-1.1c-0.5,0-1,0.5-1,1.1c0,0.5,0.5,1,1,1C27.1,21.4,27.5,20.9,27.5,20.3z"/>
<path class="st2" d="M37,33.6c-0.3,0.8-0.6,1.6-0.9,2.4c-0.8,2.6-1.2,5.3-1.2,8.1c0,1,0.2,2,0.3,3c0,0.4,0,0.6-0.4,0.7
	c-0.1,0-0.3,0.1-0.4,0.2c-0.7,0.3-0.8,0.3-0.9-0.4C33.4,46,33,44.5,33,43.1c0-1.6,0.2-3.3,0.5-4.9c0.2-1.4,0.6-2.7,1.1-4
	c0.3-0.8,0.3-0.8,1.2-0.8c0.1,0,0.2,0,0.3,0C36.3,33.5,36.6,33.5,37,33.6z"/>
<path class="st2" d="M148.2,40.4c0.8,0,1.6,0,2.5,0c0.9,0,1.6,0.8,1.6,1.7c0,0.3-0.1,0.5-0.5,0.5c-0.5,0-1,0.2-1.2-0.5
	c0-0.1-0.3-0.2-0.5-0.2c-1.3,0-2.5,0-3.8,0c-0.4,0-0.6,0.1-0.6,0.6c0,1.1,0,1.1,1.1,1.1c1.3,0,2.5,0,3.8,0c1,0,1.7,0.6,1.7,1.7
	c0,0.5,0,1,0,1.5c0,1-0.6,1.7-1.6,1.7c-1.6,0-3.2,0-4.8,0c-1,0-1.6-0.7-1.7-1.7c0-0.3,0.1-0.5,0.4-0.5c0.4,0.1,1.1-0.3,1.2,0.5
	c0,0.1,0.2,0.1,0.3,0.1c1.3,0,2.7,0,4,0c0.3,0,0.5-0.1,0.5-0.5c0-0.1,0-0.3,0-0.4c0-0.8-0.1-0.8-0.8-0.8c-1.3,0-2.7,0-4,0
	c-1.1,0-1.7-0.6-1.7-1.7c0-0.5,0-0.9,0-1.4c0-1.1,0.7-1.7,1.8-1.7C146.7,40.4,147.5,40.4,148.2,40.4
	C148.2,40.4,148.2,40.4,148.2,40.4z"/>
<path class="st2" d="M73.2,40.4c0.8,0,1.6,0,2.4,0c1,0,1.6,0.8,1.6,1.7c0,0.3-0.2,0.5-0.5,0.5c-0.4,0-1,0.2-1.1-0.5
	c0-0.1-0.4-0.2-0.5-0.2c-1.3,0-2.5,0-3.8,0c-0.4,0-0.6,0.2-0.6,0.6c0,0.1,0,0.3,0,0.4c0,0.5,0.2,0.7,0.7,0.7c1.4,0,2.8,0,4.2,0
	c1.1,0,1.7,0.6,1.7,1.7c0,0.5,0,1,0,1.5c0,1-0.6,1.6-1.6,1.7c-1.6,0-3.2,0-4.8,0c-1,0-1.6-0.7-1.7-1.6c0-0.4,0.1-0.6,0.5-0.6
	c0.5,0,1-0.2,1.2,0.5c0,0.1,0.3,0.1,0.4,0.1c1.3,0,2.6,0,3.9,0c0.4,0,0.6-0.2,0.6-0.6c0,0,0-0.1,0-0.1c0-1.1,0-1.1-1-1.1
	c-1.3,0-2.6,0-3.9,0c-0.9,0-1.6-0.6-1.6-1.6c0-0.5,0-1.1,0-1.6c0-0.9,0.7-1.6,1.6-1.6C71.5,40.4,72.4,40.4,73.2,40.4z"/>
<path class="st2" d="M87.7,45c0-1,0-1.9,0-2.9c0-1,0.6-1.7,1.7-1.7c1.6,0,3.2,0,4.8,0c1,0,1.7,0.7,1.7,1.7c0,1.9,0,3.9,0,5.8
	c0,0.5-0.1,0.7-0.6,0.6c-0.9,0-0.9,0-0.9-0.9c0-1.8,0-1.8-1.8-1.8c-0.9,0-1.7,0-2.6,0c-0.6,0-0.7,0.2-0.7,0.7c0,0.5,0,1,0,1.5
	c0,0.4-0.1,0.6-0.5,0.5c-0.1,0-0.3,0-0.4,0c-0.4,0-0.6-0.1-0.6-0.5C87.7,47,87.7,46,87.7,45z M91.8,42C91.8,42,91.8,42,91.8,42
	c-0.6,0-1.2,0-1.7,0c-0.8,0-0.8,0.1-0.8,0.8c0,0.3,0,0.6,0,0.9c0,0.5,0.2,0.6,0.6,0.6c1.3,0,2.5,0,3.8,0c0.4,0,0.6-0.2,0.6-0.6
	c0-0.4,0-0.8,0-1.2c0-0.4-0.2-0.6-0.6-0.6C93,42,92.4,42,91.8,42z"/>
<path class="st2" d="M114.5,45c0,1,0,1.9,0,2.9c0,0.5-0.1,0.7-0.6,0.6c-0.2,0-0.3,0-0.5,0c-0.3,0-0.4-0.1-0.4-0.4c0-0.5,0-1.1,0-1.6
	c0-0.4-0.1-0.6-0.6-0.6c-1.3,0-2.5,0-3.8,0c-0.4,0-0.6,0.2-0.6,0.6c0,0.5,0,1,0,1.6c0,0.4-0.1,0.6-0.5,0.5c-0.1,0-0.3,0-0.4,0
	c-0.5,0.1-0.6-0.2-0.6-0.6c0-2,0-3.9,0-5.9c0-1,0.6-1.6,1.6-1.7c1.6,0,3.3,0,4.9,0c0.9,0,1.6,0.7,1.6,1.6c0,0.5,0,1,0,1.5
	C114.5,44.1,114.5,44.5,114.5,45z M110.5,44.3C110.5,44.3,110.5,44.3,110.5,44.3c0.6,0,1.3,0,1.9,0c0.4,0,0.6-0.2,0.6-0.5
	c0-0.3,0-0.7,0-1c0-0.8-0.1-0.8-0.8-0.8c-0.8,0-1.7,0-2.5,0c-2,0-1.7-0.3-1.7,1.7c0,0.5,0.2,0.6,0.6,0.6
	C109.2,44.3,109.9,44.3,110.5,44.3z"/>
<path class="st2" d="M125.7,44.4c0-0.8,0-1.6,0-2.4c0-0.9,0.7-1.6,1.6-1.7c1.6,0,3.2,0,4.8,0c0.9,0,1.6,0.7,1.7,1.6
	c0,1.6,0,3.2,0,4.8c0,1.1-0.7,1.7-1.8,1.7c-1.5,0-3,0-4.5,0c-1.2,0-1.8-0.7-1.8-1.8C125.7,46,125.7,45.2,125.7,44.4z M129.7,47
	c0.7,0,1.3,0,2,0c0.4,0,0.6-0.1,0.5-0.5c0-1.3,0-2.7,0-4c0-0.4-0.2-0.5-0.5-0.5c-1.3,0-2.7,0-4,0c-0.3,0-0.5,0.1-0.5,0.5
	c0,1.3,0,2.7,0,4c0,0.3,0.2,0.5,0.5,0.5C128.4,47,129.1,47,129.7,47z"/>
<path class="st2" d="M135.4,44.5c0-1.2,0-2.3,0-3.5c0-0.4,0.2-0.6,0.6-0.6c2.1,0,4.2,0,6.3,0c0.7,0,0.6,0.4,0.6,0.8
	c0,0.5,0,0.8-0.6,0.8c-1.5,0-3,0-4.6,0c-0.7,0-0.8,0.1-0.8,0.9c0,0.8,0,0.8,0.8,0.8c1.1,0,2.2,0,3.3,0c0.7,0,0.7,0,0.7,0.8
	c0,0.1,0,0.2,0,0.2c0.1,0.4-0.2,0.5-0.6,0.5c-1.1,0-2.3,0-3.4,0c-0.3,0-0.7,0.1-0.7,0.3c-0.1,0.4-0.1,0.9,0.1,1.3
	c0,0.1,0.5,0.2,0.8,0.2c1.4,0,2.8,0,4.2,0c0.2,0,0.7,0.1,0.7,0.2c0.1,0.4,0,0.8,0,1.3c0,0.1-0.3,0.1-0.4,0.1c-2.1,0-4.3,0-6.4,0
	c-0.4,0-0.6-0.1-0.6-0.6C135.4,46.8,135.4,45.7,135.4,44.5z"/>
<path class="st2" d="M66,45.8c0-0.2,0.1-0.5,0.1-0.7c0-1.4,0-2.7,0-4.1c0-0.7,0.4-0.6,0.8-0.6c0.4,0,0.7,0,0.7,0.6
	c0,2.3,0,4.6,0,6.9c0,0.4-0.1,0.6-0.6,0.6c-0.9,0.1-1.4-0.3-1.9-0.9c-1.1-1.4-2.3-2.8-3.5-4.2c-0.1-0.2-0.2-0.4-0.3-0.5
	c-0.1,0-0.2,0.1-0.3,0.1c0,0.2-0.1,0.4-0.1,0.7c0,1.4,0,2.8,0,4.2c0,0.7-0.4,0.6-0.8,0.6c-0.5,0-0.7,0-0.7-0.6c0-2.3,0-4.6,0-6.9
	c0-0.5,0.1-0.6,0.6-0.6c0.8-0.1,1.3,0.2,1.8,0.8c1.2,1.4,2.4,2.8,3.6,4.3c0.1,0.1,0.2,0.3,0.3,0.5C65.9,45.9,66,45.9,66,45.8z"/>
<path class="st2" d="M17,33.3c-0.1-0.3-0.1-0.5-0.1-0.7c-0.1-0.6-0.1-1.2-0.2-1.8c-0.1-0.8-0.6-1.4-1.2-1.9c-0.6-0.4-0.9-1-0.9-1.6
	c0-0.7-0.1-1.3-0.4-1.9c-0.3-0.6-0.5-1.2-0.6-1.8c-0.1-0.3,0.1-0.7,0.2-1c0.1-0.4,0.3-0.4,0.6-0.1c0.5,0.5,0.9,1.1,1.4,1.6
	c0.3,0.3,0.6,0.5,0.9,0.6c0.9,0.4,1.3,1.1,1.4,2c0.1,0.9,0.1,1.8,0.1,2.7c0,1,0,2,0.1,3.1c0,0.3-0.1,0.5-0.4,0.6
	C17.6,33.1,17.4,33.2,17,33.3z M16.2,27.5c0.4,0,0.7-0.3,0.8-0.8c0-0.4-0.2-0.7-0.6-0.7c-0.4,0-0.7,0.3-0.7,0.8
	C15.7,27.1,15.9,27.5,16.2,27.5z"/>
<path class="st2" d="M120.7,40.4c1,0,1.9,0,2.9,0c0.4,0,0.6,0.1,0.6,0.6c0,1,0,1-0.9,1c-1.6,0-3.2,0-4.8,0c-0.7,0-0.8,0.1-0.8,0.8
	c0,1.2,0,2.4,0,3.6c0,0.5,0.2,0.7,0.7,0.7c1.7,0,3.4,0,5.1,0c0.8,0,0.8,0,0.8,0.8c0,0.8,0,0.8-0.8,0.8c-0.5,0-1,0-1.5,0
	c-0.4,0-0.6,0.1-0.7,0.5c0,0.1-0.1,0.3-0.1,0.4c-0.3,1-0.4,1-1.4,0.9c-0.3,0-0.4-0.2-0.3-0.4c0.1-0.2,0.1-0.4,0.2-0.6
	c0.2-0.6,0.1-0.7-0.6-0.7c-0.6,0-1.2,0-1.8-0.1c-0.7-0.1-1.2-0.7-1.2-1.4c0-1.7,0-3.3,0-5c0-1,0.6-1.6,1.6-1.6
	C118.7,40.4,119.7,40.4,120.7,40.4C120.7,40.4,120.7,40.4,120.7,40.4z"/>
<path class="st2" d="M40.3,33.7c-0.4,0-0.8-0.1-1.1-0.2c-0.2,0-0.3-0.3-0.4-0.4c0,0,0-0.1,0-0.1c-0.1-0.6-0.1-1.1-0.9-1.1
	c-1.1-0.1-1.6-0.9-1.7-2.1c0-0.4,0-0.8-0.4-1.1c-0.1,0-0.1-0.2-0.1-0.3c0-1.1,0-2.2,0.1-3.2c0.3-1.4,0.7-2.9,1.1-4.3
	c0-0.1,0.2-0.2,0.2-0.3c0.1,0.1,0.2,0.2,0.2,0.3c0,0.8,0.2,1.6-0.2,2.4c-0.1,0.3-0.1,0.8,0.1,1.2c0.3,0.6,0.3,1.2,0.3,1.8
	c0,0.1,0,0.3,0,0.4c0,0.5,0.1,1,0.7,1.2c1.1,0.3,1.4,1.2,1.4,2.3c0,0.3,0,0.6,0.3,0.7c0.1,0,0.1,0.2,0.1,0.3
	C40.1,32,40.2,32.8,40.3,33.7z M38.6,29.9c0-0.5-0.3-1-0.6-1.1c-0.2,0-0.6,0-0.8,0.2c-0.3,0.3-0.4,0.8-0.1,1.3
	c0.2,0.4,0.4,0.6,0.9,0.6C38.4,30.8,38.6,30.4,38.6,29.9z"/>
<path class="st2" d="M18.7,47.3c-0.4-0.2-0.8-0.4-1.2-0.7c-0.1-0.1-0.2-0.3-0.2-0.5c-0.1-1.3-0.1-2.7-0.2-4
	c-0.1-1.6-0.1-3.2-0.1-4.8c0-1.1-0.1-2.2-0.2-3.3c0-0.3,0.1-0.4,0.3-0.6c1.5-0.7,1.2-0.5,1.2,0.7c0,2.7,0,5.4,0.1,8.1
	c0,1.5,0.2,3.1,0.3,4.6C18.8,47.1,18.8,47.1,18.7,47.3z"/>
<path class="st2" d="M40.4,43.7c0-3.4-0.6-6.7-1.8-9.9c0.8-0.1,1.4,0,2.1,0.3c0.1,0.1,0.2,0.2,0.2,0.4c0.6,1.5,1,3.2,1.2,4.8
	c0.1,0.7,0.2,1.4,0.2,2.2c0,0.2-0.1,0.5-0.2,0.7c-0.4,0.5-0.9,1.1-1.4,1.6C40.5,43.8,40.4,43.7,40.4,43.7z"/>
<path class="st2" d="M97.2,44.4c0-1.1,0-2.2,0-3.4c0-0.6,0.3-0.7,0.8-0.7c0.7,0,0.8,0,0.8,0.7c0,1.6,0,3.3,0,4.9c0,0.9,0,0.9,1,0.9
	c1.7,0,3.4,0,5.1,0c0.5,0,0.7,0.2,0.6,0.6c0,0.2,0,0.4,0,0.6c0,0.3-0.1,0.4-0.4,0.4c-2.4,0-4.8,0-7.2,0c-0.4,0-0.5-0.2-0.5-0.5
	C97.2,46.8,97.2,45.6,97.2,44.4z"/>
<path class="st2" d="M82.4,40.4c1.2,0,2.3,0,3.5,0c0.6,0,0.6,0.4,0.6,0.8c0,0.4,0,0.8-0.6,0.7c-0.7,0-1.3,0-2,0
	c-0.5,0-0.7,0.2-0.7,0.7c0,1.7,0,3.5,0,5.2c0,0.6-0.2,0.7-0.8,0.7c-0.8,0-0.8,0-0.8-0.7c0-1.7,0-3.4,0-5.1c0-0.7-0.1-0.8-0.8-0.8
	c-0.7,0-1.3,0-2,0c-0.4,0-0.6-0.1-0.6-0.6c0-0.1,0-0.3,0-0.4c0-0.4,0.1-0.6,0.6-0.6C80,40.4,81.2,40.4,82.4,40.4z"/>
<path class="st2" d="M13.4,43.3c-0.5-0.6-1.2-1.1-1.1-2.1c0-2.2-0.1-4.5-0.1-6.7c0-0.5,0-0.6,0.5-0.5c0.2,0,0.3,0.1,0.5,0.1
	c0.3,0,0.4,0.3,0.4,0.6c0,0.6-0.1,1.2-0.1,1.8c0,2.1,0,4.3,0,6.4c0,0.1,0,0.3,0,0.4C13.5,43.3,13.5,43.3,13.4,43.3z"/>
<path class="st2" d="M24.2,20.5c0.5,0.7,1,1.3,1.6,1.9c-0.1,0-0.1,0.1-0.2,0.1c-1.1,0.4-1.7,1.3-1.8,2.4c-0.1,0.6-0.1,0.6-0.7,0.5
	c-0.3-0.1-0.6-0.2-0.9-0.2c-0.4,0-0.4-0.2-0.4-0.5c0.1-0.7,0-1.4,0.1-2c0-0.8,0.1-0.8,0.9-1.1c0.3-0.1,0.6-0.3,0.8-0.5
	C23.8,20.9,23.9,20.7,24.2,20.5z"/>
<path class="st2" d="M28.2,16.8c-0.2-0.5-0.6-0.9-1-1.3c-0.2-0.2-0.3-0.5-0.4-0.7c0.3,0,0.5-0.1,0.8,0c1,0.2,1.9,0.6,2.4,1.5
	c0.4,0.8,0.4,1.6,0.1,2.4c-0.2,0.6-0.8,0.8-1.3,1.1c0,0-0.2,0-0.3-0.1c-0.4-0.5-1.1-1.4-1.1-1.4S28.5,17.8,28.2,16.8z"/>
<path class="st2" d="M14.3,27c0.2,0.6,0.2,1-0.2,1.5c-0.3,0.3-0.5,0.7-0.8,1.1c-0.2,0.2-0.3,0.5,0,0.8c0.3,0.2,0.5,0,0.7-0.2
	c0.3-0.3,0.5-0.6,0.7-0.9c0.1-0.2,0.2-0.3,0.5-0.1c0.2,0.2,0.2,0.3,0,0.5c-0.5,0.7-1,1.3-1.3,2.1c-0.2,0.5-0.3,1.2-0.4,1.8
	c0,0.3-0.1,0.4-0.4,0.4c-1-0.1-1-0.1-1-1.1c0-0.6-0.1-1.3,0-1.9c0-0.3,0.1-0.7,0.3-1c0.5-0.9,1.1-1.7,1.7-2.6
	C14.2,27,14.3,27,14.3,27z"/>
<path class="st2" d="M39,21.1c0.1,0.3,0.2,0.6,0.3,0.8c0.3,1.3,0.6,2.7,0.8,4c0.1,1.1,0.1,2.1,0.1,3.2c0,0.1-0.1,0.2-0.2,0.3
	c-0.1-0.1-0.3-0.1-0.3-0.2c-0.1-0.7-0.6-1-1.2-1.4c-0.1-0.1-0.3-0.3-0.3-0.4c0-0.4,0-0.9,0.1-1.3c0.1-0.4,0.3-0.8,0.4-1.2
	c0.1-0.5,0.1-0.9,0.1-1.4c0-0.5-0.1-1-0.1-1.5c0-0.3,0.1-0.6,0.1-0.9C38.8,21.1,38.9,21.1,39,21.1z"/>
<path class="st2" d="M56.9,44.4c0-1.1,0-2.3,0-3.4c0-0.7,0.4-0.6,0.8-0.6c0.4,0,0.8,0,0.7,0.6c0,2.3,0,4.6,0,7
	c0,0.6-0.3,0.6-0.7,0.6c-0.4,0-0.8,0.1-0.8-0.6C57,46.8,56.9,45.6,56.9,44.4z"/>
<path class="st2" d="M18.3,23.6c-0.7-0.2-1.5-0.1-2.1-0.7c-0.3-0.4-0.8-0.6-1.1-1c-0.1-0.1-0.3-0.4-0.2-0.5c0.1-0.2,0.3-0.4,0.5-0.4
	c1-0.2,2,0.2,2.5,1c0.3,0.4,0.4,0.9,0.7,1.4C18.4,23.5,18.3,23.5,18.3,23.6z"/>
<path class="st2" d="M35.4,33c0.1-0.8,0.1-1.6,0.2-2.4c0-0.1,0.1-0.2,0.1-0.3c0.1,0.1,0.2,0.2,0.2,0.3c0.1,0.5,0.4,0.8,0.8,1.2
	c0.2,0.2,0.2,1.2,0,1.5c0,0-0.1,0.1-0.2,0.1C36.2,33.2,35.8,33.1,35.4,33z"/>
<path class="st2" d="M127.6,39.1c-0.3-1.1,0.2-1.3,1.1-1.3c0.2,0,0.4,0.1,0.6,0.2c0.7,0.3,1.4,0.7,2.1,0.2c0.3,1,0.1,1.3-0.8,1.3
	c-0.3,0-0.6-0.1-0.9-0.2C129,39,128.3,38.6,127.6,39.1z"/>
<path class="st2" d="M18.2,25.5c-0.2-0.2-0.3-0.4-0.5-0.6c-0.2-0.2-0.5-0.3-0.8-0.5c-0.1-0.1-0.3-0.2-0.3-0.2
	c0.1-0.2,0.2-0.5,0.3-0.5c0.5,0.1,1,0.2,1.5,0.3c0,0,0.1,0.1,0.1,0.2c0,0.4-0.1,0.9-0.1,1.3C18.3,25.5,18.2,25.5,18.2,25.5z"/>
</svg>
